massMuscle_states
version=1
nRows=27
nColumns=15
inDegrees=yes

# SIMM Motion File Header:
name massMuscle_states
datacolumns 15
datarows 27
otherdata 1
range 0.98121509 0.98145880
endheader
time	massToGround_xRotation	massToGround_yRotation	massToGround_zRotation	massToGround_xTranslation	massToGround_yTranslation	massToGround_zTranslation	massToGround_xRotation_u	massToGround_yRotation_u	massToGround_zRotation_u	massToGround_xTranslation_u	massToGround_yTranslation_u	massToGround_zTranslation_u	muscle.activation	muscle.fiber_length
      0.98121509	      0.00000000	      0.00000000	      0.00000000	     -0.15234151	     -4.57690390	     -0.15234151	      0.00000000	      0.00000000	      0.00000000	     -1.03187799	     -6.58069649	     -1.03187799	      0.08844155	      2.04699741
      0.98121926	      0.00000000	      0.00000000	      0.00000000	     -0.15234581	     -4.57693135	     -0.15234581	      0.00000000	      0.00000000	      0.00000000	     -1.03191368	     -6.58058680	     -1.03191368	      0.08843787	      2.04703822
      0.98122578	      0.00000000	      0.00000000	      0.00000000	     -0.15235254	     -4.57697423	     -0.15235254	      0.00000000	      0.00000000	      0.00000000	     -1.03196944	     -6.58041540	     -1.03196944	      0.08843212	      2.04704646
      0.98123819	      0.00000000	      0.00000000	      0.00000000	     -0.15236535	     -4.57705592	     -0.15236535	      0.00000000	      0.00000000	      0.00000000	     -1.03207565	     -6.58008892	     -1.03207565	      0.08842118	      2.04705439
      0.98125359	      0.00000000	      0.00000000	      0.00000000	     -0.15238124	     -4.57715724	     -0.15238124	      0.00000000	      0.00000000	      0.00000000	     -1.03220741	     -6.57968391	     -1.03220741	      0.08840761	      2.04703595
      0.98125871	      0.00000000	      0.00000000	      0.00000000	     -0.15238653	     -4.57719094	     -0.15238653	      0.00000000	      0.00000000	      0.00000000	     -1.03225125	     -6.57954913	     -1.03225125	      0.08840310	      2.04707089
      0.98126551	      0.00000000	      0.00000000	      0.00000000	     -0.15239355	     -4.57723570	     -0.15239355	      0.00000000	      0.00000000	      0.00000000	     -1.03230946	     -6.57937017	     -1.03230946	      0.08839710	      2.04707211
      0.98128151	      0.00000000	      0.00000000	      0.00000000	     -0.15241006	     -4.57734092	     -0.15241006	      0.00000000	      0.00000000	      0.00000000	     -1.03244631	     -6.57894942	     -1.03244631	      0.08838301	      2.04704009
      0.98128567	      0.00000000	      0.00000000	      0.00000000	     -0.15241437	     -4.57736834	     -0.15241437	      0.00000000	      0.00000000	      0.00000000	     -1.03248197	     -6.57883977	     -1.03248197	      0.08837933	      2.04708274
      0.98129211	      0.00000000	      0.00000000	      0.00000000	     -0.15242101	     -4.57741067	     -0.15242101	      0.00000000	      0.00000000	      0.00000000	     -1.03253703	     -6.57867048	     -1.03253703	      0.08837366	      2.04709097
      0.98130438	      0.00000000	      0.00000000	      0.00000000	     -0.15243368	     -4.57749140	     -0.15243368	      0.00000000	      0.00000000	      0.00000000	     -1.03264205	     -6.57834755	     -1.03264205	      0.08836285	      2.04709882
      0.98131976	      0.00000000	      0.00000000	      0.00000000	     -0.15244957	     -4.57759258	     -0.15244957	      0.00000000	      0.00000000	      0.00000000	     -1.03277370	     -6.57794273	     -1.03277370	      0.08834929	      2.04708008
      0.98132485	      0.00000000	      0.00000000	      0.00000000	     -0.15245482	     -4.57762603	     -0.15245482	      0.00000000	      0.00000000	      0.00000000	     -1.03281722	     -6.57780889	     -1.03281722	      0.08834481	      2.04711508
      0.98133164	      0.00000000	      0.00000000	      0.00000000	     -0.15246183	     -4.57767068	     -0.15246183	      0.00000000	      0.00000000	      0.00000000	     -1.03287531	     -6.57763024	     -1.03287531	      0.08833883	      2.04711640
      0.98134774	      0.00000000	      0.00000000	      0.00000000	     -0.15247846	     -4.57777658	     -0.15247846	      0.00000000	      0.00000000	      0.00000000	     -1.03301312	     -6.57720639	     -1.03301312	      0.08832463	      2.04708407
      0.98135187	      0.00000000	      0.00000000	      0.00000000	     -0.15248273	     -4.57780376	     -0.15248273	      0.00000000	      0.00000000	      0.00000000	     -1.03304849	     -6.57709760	     -1.03304849	      0.08832099	      2.04712697
      0.98135829	      0.00000000	      0.00000000	      0.00000000	     -0.15248936	     -4.57784599	     -0.15248936	      0.00000000	      0.00000000	      0.00000000	     -1.03310344	     -6.57692857	     -1.03310344	      0.08831533	      2.04713555
      0.98137029	      0.00000000	      0.00000000	      0.00000000	     -0.15250176	     -4.57792490	     -0.15250176	      0.00000000	      0.00000000	      0.00000000	     -1.03320615	     -6.57661266	     -1.03320615	      0.08830476	      2.04714269
      0.98138559	      0.00000000	      0.00000000	      0.00000000	     -0.15251757	     -4.57802553	     -0.15251757	      0.00000000	      0.00000000	      0.00000000	     -1.03333713	     -6.57620975	     -1.03333713	      0.08829127	      2.04712264
      0.98139053	      0.00000000	      0.00000000	      0.00000000	     -0.15252268	     -4.57805805	     -0.15252268	      0.00000000	      0.00000000	      0.00000000	     -1.03337945	     -6.57607953	     -1.03337945	      0.08828692	      2.04715829
      0.98139726	      0.00000000	      0.00000000	      0.00000000	     -0.15252963	     -4.57810230	     -0.15252963	      0.00000000	      0.00000000	      0.00000000	     -1.03343706	     -6.57590230	     -1.03343706	      0.08828098	      2.04716010
      0.98141383	      0.00000000	      0.00000000	      0.00000000	     -0.15254676	     -4.57821126	     -0.15254676	      0.00000000	      0.00000000	      0.00000000	     -1.03357891	     -6.57546590	     -1.03357891	      0.08826638	      2.04713994
      0.98141843	      0.00000000	      0.00000000	      0.00000000	     -0.15255151	     -4.57824147	     -0.15255151	      0.00000000	      0.00000000	      0.00000000	     -1.03361823	     -6.57534490	     -1.03361823	      0.08826233	      2.04717470
      0.98142519	      0.00000000	      0.00000000	      0.00000000	     -0.15255849	     -4.57828590	     -0.15255849	      0.00000000	      0.00000000	      0.00000000	     -1.03367609	     -6.57516688	     -1.03367609	      0.08825638	      2.04717837
      0.98144447	      0.00000000	      0.00000000	      0.00000000	     -0.15257842	     -4.57841267	     -0.15257842	      0.00000000	      0.00000000	      0.00000000	     -1.03384115	     -6.57465895	     -1.03384115	      0.08823938	      2.04722863
      0.98144902	      0.00000000	      0.00000000	      0.00000000	     -0.15258313	     -4.57844259	     -0.15258313	      0.00000000	      0.00000000	      0.00000000	     -1.03388011	     -6.57453907	     -1.03388011	      0.08823537	      2.04721381
      0.98145880	      0.00000000	      0.00000000	      0.00000000	     -0.15259325	     -4.57850693	     -0.15259325	      0.00000000	      0.00000000	      0.00000000	     -1.03396390	     -6.57428121	     -1.03396390	      0.08822675	      2.04721010
